<svg width="278" height="178" viewBox="0 0 278 178" fill="none" xmlns="http://www.w3.org/2000/svg">
<path d="M174 140.813C171.674 137.2 104.429 32.5962 102.218 28.929C98.1486 22.1813 93.2858 13.3877 89.3228 6.59058L88.5389 4.55028C88.8251 4.36917 89.5769 5.08776 90.2188 6.15553L90.2304 6.1747L90.2986 6.28909C94.677 13.6443 99.0067 21.0234 103.262 28.4369C105.389 32.1436 171.986 137.052 174 140.813Z" fill="#FFFFFF"/>
<path d="M14.25 176.815L16.21 167.015H20.354C21.6233 167.015 22.6033 167.291 23.294 167.841C23.9847 168.392 24.33 169.167 24.33 170.165C24.33 170.987 24.134 171.705 23.742 172.321C23.35 172.937 22.79 173.413 22.062 173.749C21.334 174.085 20.4753 174.253 19.486 174.253H16.308L17.778 173.021L17.022 176.815H14.25ZM17.708 173.343L16.742 172.069H19.612C20.2187 172.069 20.69 171.925 21.026 171.635C21.362 171.346 21.53 170.935 21.53 170.403C21.53 169.993 21.3947 169.689 21.124 169.493C20.8533 169.297 20.4753 169.199 19.99 169.199H17.33L18.8 167.883L17.708 173.343Z" fill="#FFFFFF"/>
<path d="M32.8355 176.815L34.7955 167.015H38.9815C40.2415 167.015 41.2122 167.291 41.8935 167.841C42.5842 168.392 42.9295 169.157 42.9295 170.137C42.9295 170.959 42.7289 171.677 42.3275 172.293C41.9355 172.9 41.3755 173.371 40.6475 173.707C39.9195 174.043 39.0609 174.211 38.0715 174.211H34.8935L36.3635 173.021L35.6075 176.815H32.8355ZM38.9815 176.815L36.9795 173.245H39.8495L41.8795 176.815H38.9815ZM36.2935 173.343L35.3275 172.069H38.1975C38.8135 172.069 39.2895 171.925 39.6255 171.635C39.9615 171.346 40.1295 170.935 40.1295 170.403C40.1295 169.993 39.9942 169.689 39.7235 169.493C39.4529 169.297 39.0749 169.199 38.5895 169.199H35.9155L37.3995 167.883L36.2935 173.343Z" fill="#FFFFFF"/>
<path d="M51.5988 176.815L53.5588 167.015H56.3308L54.3708 176.815H51.5988Z" fill="#FFFFFF"/>
<path d="M67.137 177.011C66.353 177.011 65.6763 176.885 65.107 176.633C64.547 176.381 64.1036 176.008 63.777 175.513L65.569 173.805C65.7743 174.132 66.0123 174.379 66.283 174.547C66.5536 174.715 66.8523 174.799 67.179 174.799C67.5616 174.799 67.8696 174.692 68.103 174.477C68.3456 174.253 68.509 173.922 68.593 173.483L69.447 169.157H66.059L66.493 167.015H72.625L71.351 173.329C71.1736 174.235 70.903 174.958 70.539 175.499C70.175 176.031 69.7083 176.419 69.139 176.661C68.5696 176.895 67.9023 177.011 67.137 177.011Z" fill="#FFFFFF"/>
<path d="M84.6739 170.809H89.2239L88.8179 172.881H84.2679L84.6739 170.809ZM84.0999 174.673H89.2379L88.7899 176.815H80.9359L82.8959 167.015H90.5679L90.1339 169.157H85.1919L84.0999 174.673Z" fill="#FFFFFF"/>
<path d="M101.615 176.815L99.3895 167.015H102.231L104.107 175.513H102.301L107.635 167.015H110.491L104.345 176.815H101.615Z" fill="#FFFFFF"/>
<path d="M122.688 177.011C121.68 177.011 120.812 176.829 120.084 176.465C119.356 176.092 118.796 175.583 118.404 174.939C118.012 174.295 117.816 173.549 117.816 172.699C117.816 171.841 117.965 171.057 118.264 170.347C118.563 169.629 118.983 169.008 119.524 168.485C120.065 167.953 120.709 167.543 121.456 167.253C122.212 166.964 123.038 166.819 123.934 166.819C124.942 166.819 125.81 167.006 126.538 167.379C127.266 167.743 127.826 168.247 128.218 168.891C128.61 169.535 128.806 170.282 128.806 171.131C128.806 171.99 128.657 172.779 128.358 173.497C128.059 174.207 127.639 174.827 127.098 175.359C126.557 175.882 125.908 176.288 125.152 176.577C124.405 176.867 123.584 177.011 122.688 177.011ZM122.926 174.715C123.411 174.715 123.841 174.627 124.214 174.449C124.597 174.272 124.919 174.025 125.18 173.707C125.451 173.381 125.656 173.012 125.796 172.601C125.936 172.191 126.006 171.757 126.006 171.299C126.006 170.861 125.913 170.478 125.726 170.151C125.549 169.825 125.287 169.573 124.942 169.395C124.606 169.209 124.191 169.115 123.696 169.115C123.22 169.115 122.791 169.204 122.408 169.381C122.025 169.559 121.699 169.811 121.428 170.137C121.167 170.455 120.966 170.819 120.826 171.229C120.686 171.64 120.616 172.074 120.616 172.531C120.616 172.961 120.705 173.343 120.882 173.679C121.069 174.006 121.33 174.263 121.666 174.449C122.011 174.627 122.431 174.715 122.926 174.715Z" fill="#FFFFFF"/>
<path d="M137.05 176.815L137.4 175.079L144.442 168.233L144.68 169.213H138.716L139.15 167.015H147.592L147.242 168.751L140.2 175.597L139.962 174.617H146.276L145.828 176.815H137.05Z" fill="#FFFFFF"/>
<path d="M155.456 176.815L157.416 167.015H160.188L158.228 176.815H155.456Z" fill="#FFFFFF"/>
<path d="M183.026 140.815C183.065 137.371 183.264 133.951 183.504 130.536C183.75 127.122 184.055 123.718 184.404 120.319C184.752 116.921 185.171 113.531 185.605 110.146C186.055 106.762 186.544 103.384 187.06 100.01C187.254 98.7454 188.411 97.8349 189.734 97.8399H189.762C192.066 97.8459 194.275 97.7792 196.659 97.8439L198.433 97.8876L200.204 97.9991C201.387 98.0518 202.561 98.1912 203.735 98.3275C208.429 98.8678 213.058 99.8818 217.503 101.344C221.952 102.798 226.201 104.737 230.174 107.034C234.129 109.358 237.831 112.036 241.026 115.165C237.004 113.044 232.979 111.091 228.827 109.478C224.692 107.838 220.45 106.534 216.165 105.492C211.881 104.44 207.515 103.776 203.139 103.367C202.044 103.273 200.949 103.181 199.85 103.136L198.204 103.047L196.555 103.024C194.376 102.981 192.019 102.992 189.759 102.974L192.461 100.804C191.854 104.165 191.221 107.522 190.548 110.872C189.86 114.221 189.156 117.567 188.382 120.904C187.608 124.24 186.79 127.57 185.914 130.89C185.032 134.211 184.109 137.526 183.026 140.815Z" fill="#FFFFFF"/>
<path d="M196.026 116.994C200.511 116.485 204.995 116.133 209.48 115.819C211.722 115.641 213.965 115.538 216.207 115.405C218.45 115.275 220.692 115.145 222.935 115.068L226.299 114.93L227.98 114.862L228.822 114.828L229.782 114.815C231.082 114.834 232.433 115.052 233.765 115.512C235.088 115.989 236.383 116.735 237.436 117.738C239.567 119.756 240.699 122.382 241.3 124.845C241.91 127.336 242.103 129.788 242.113 132.188L239.856 129.575C244.019 130.119 248.175 130.715 252.331 131.308L258.558 132.239L260.113 132.48C260.351 132.51 260.665 132.576 260.987 132.652C261.302 132.722 261.618 132.792 261.908 132.887C263.096 133.228 264.248 133.703 265.32 134.316C267.466 135.539 269.318 137.261 270.677 139.309C271.362 140.33 271.905 141.44 272.329 142.585L272.619 143.435L272.85 144.194L273.314 145.712L275.161 151.786L276.93 157.888L276.97 158.027C277.184 158.766 276.765 159.543 276.033 159.759C275.884 159.803 275.727 159.82 275.58 159.814C272.458 159.667 245.282 158.71 242.16 158.369C245.282 158.027 272.458 157.069 275.58 156.923L274.23 158.848L271.837 152.967L269.522 147.06L268.945 145.581L268.657 144.843L268.385 144.21C268.015 143.397 267.547 142.64 267.026 141.931C265.975 140.513 264.581 139.389 263.049 138.595C262.283 138.194 261.468 137.898 260.633 137.696C260.422 137.634 260.225 137.602 260.027 137.566C259.837 137.528 259.637 137.487 259.354 137.461L257.797 137.274L251.576 136.492C247.432 135.944 243.289 135.398 239.153 134.799L239.139 134.797C237.836 134.609 236.897 133.479 236.896 132.187C236.893 130.06 236.778 127.956 236.36 126.031C235.936 124.112 235.232 122.387 234.108 121.235C233.019 120.059 231.434 119.414 229.543 119.217L228.822 119.159L227.98 119.124L226.299 119.056L222.935 118.918C220.692 118.841 218.45 118.711 216.207 118.581C213.965 118.448 211.722 118.345 209.48 118.168C204.996 117.854 200.511 117.502 196.026 116.994Z" fill="#FFFFFF"/>
<path d="M33.526 157.136C38.121 156.456 175.055 155.048 179.65 154.867C188.841 154.501 198.031 154.458 207.221 154.629L204.715 157.135C204.757 153.494 206.47 149.941 209.2 147.661C210.553 146.507 212.155 145.669 213.839 145.183C214.683 144.941 215.551 144.813 216.415 144.748C216.848 144.726 217.281 144.739 217.71 144.738L218.823 144.805L219.936 144.891C220.36 144.941 220.783 144.978 221.199 145.048C222.033 145.207 222.846 145.432 223.622 145.747C225.179 146.366 226.552 147.354 227.649 148.541C229.882 150.895 230.884 154.196 230.426 157.135C230.205 155.664 229.701 154.29 228.986 153.09C228.256 151.896 227.316 150.878 226.247 150.087C225.17 149.3 223.957 148.769 222.725 148.463C222.105 148.316 221.476 148.245 220.851 148.22C220.538 148.217 220.224 148.242 219.915 148.248L218.824 148.327L217.734 148.401C217.431 148.445 217.128 148.469 216.83 148.52C216.236 148.639 215.661 148.807 215.109 149.027C214.004 149.466 213.019 150.147 212.198 150.967C210.553 152.616 209.65 154.882 209.727 157.136C209.772 158.473 208.725 159.593 207.388 159.639L207.364 159.64L207.221 159.643C198.031 159.814 188.84 159.771 179.65 159.405C175.055 159.222 38.122 157.816 33.526 157.136Z" fill="#FFFFFF"/>
<path d="M82.2207 2.76508C81.1431 5.43316 73.0913 57.5381 72.5074 60.2784C71.3357 65.759 70.4837 71.2859 69.8434 76.8437L72.5437 75.6977C68.9373 75.1959 65.2709 75.7129 62.7744 77.0265C61.5134 77.674 60.5431 78.5172 59.9139 79.4608C59.6001 79.9339 59.397 80.4379 59.2566 80.9487C59.1967 81.2062 59.1714 81.4688 59.1326 81.727L59.1009 82.4068L59.0879 83.0893C59.1 83.3518 59.0994 83.6119 59.132 83.8725C59.2159 84.3976 59.3669 84.9197 59.6102 85.4325C60.0855 86.4595 60.9422 87.4292 62.0201 88.2615C64.1526 89.9467 67.3305 91.0278 70.2789 91.1775C68.8429 90.8315 67.5278 90.3292 66.4034 89.725C65.2863 89.1126 64.3618 88.3993 63.6733 87.6412C62.9894 86.8788 62.5709 86.0717 62.3766 85.2856C62.2858 84.891 62.2709 84.502 62.3013 84.1221C62.3259 83.9332 62.3782 83.7478 62.4114 83.5627L62.5857 82.9172L62.7549 82.2717C62.8251 82.0956 62.8756 81.9167 62.9523 81.7446C63.1224 81.4042 63.3392 81.0823 63.6055 80.7819C64.1372 80.1801 64.8978 79.6857 65.7815 79.3101C67.558 78.5584 69.8797 78.3427 72.1032 78.7154C73.4221 78.936 74.6226 78.4678 74.7859 77.6695L74.789 77.6552L74.8045 77.5695C75.7832 72.0612 76.5503 66.5213 76.9977 60.9353C77.2214 58.1423 82.4887 5.63064 82.2207 2.76508Z" fill="#FFFFFF"/>
<path d="M89.2146 3.78248C90.2084 4.21848 91.2355 4.62286 92.198 5.1195C91.9228 5.38408 91.6562 5.63587 91.4301 5.94307L89.4396 7.28997L79.3135 8.97482C78.4979 9.03601 77.666 9.06752 76.8566 9.17153C76.7829 7.15418 76.5235 5.09353 76.5395 3.08348C77.8834 2.7097 79.2809 2.4737 80.6509 2.19541C81.7641 1.96906 82.8916 1.68654 84.0161 1.51549L89.2146 3.78248Z" fill="#FFFFFF"/>
<path d="M81.7409 7.13253L85 4.81348L177.889 146.043L170.847 146.129L81.7409 7.13253Z" fill="#FFFFFF"/>
<path d="M31.5253 104.457L21.8722 123.363L27.242 145.643H18.0542L14.1149 129.347H11.2236L8.99499 145.643H0L5.63257 104.457H14.6276L12.2683 121.708H14.4528L23.3013 104.457H31.5253Z" fill="#F45423"/>
<path d="M41.6074 128.774L39.3004 145.643H30.3054L35.9379 104.457H51.9362C57.2475 104.457 59.5201 107.258 58.754 112.86L58.1011 117.634C57.6368 121.029 56.1201 123.193 53.5509 124.127C55.5881 124.891 56.4209 126.631 56.0495 129.347L53.8209 145.643H44.8259L46.9588 130.047C47.0748 129.198 46.7259 128.774 45.9121 128.774H41.6074ZM44.1059 110.504L42.4605 122.536H47.215C47.5577 122.536 47.8535 122.408 48.1025 122.154C48.3943 121.899 48.5635 121.602 48.6099 121.262L49.907 111.777C49.9535 111.438 49.8656 111.141 49.6434 110.886C49.4641 110.632 49.2031 110.504 48.8604 110.504H44.1059Z" fill="#F45423"/>
<path d="M82.2779 103.82C87.5892 103.82 89.8619 106.621 89.0958 112.223L84.5253 145.643H75.5303L77.4194 131.83H70.9302L69.0411 145.643H60.0461L64.6165 112.223C65.3826 106.621 68.4214 103.82 73.7327 103.82H82.2779ZM71.8704 124.955H78.3596L80.2488 111.141C80.2952 110.801 80.2073 110.504 79.9852 110.25C79.8058 109.995 79.5448 109.868 79.2021 109.868H75.1544C74.8117 109.868 74.4945 109.995 74.2027 110.25C73.9537 110.504 73.806 110.801 73.7595 111.141L71.8704 124.955Z" fill="#F45423"/>
<path d="M115.067 145.643H106.072L110.747 111.459C110.793 111.12 110.705 110.823 110.483 110.568C110.304 110.313 110.043 110.186 109.7 110.186H106.23C105.888 110.186 105.57 110.313 105.279 110.568C105.03 110.823 104.882 111.12 104.836 111.459L100.161 145.643H91.1656L95.7361 112.223C96.5022 106.621 99.5409 103.82 104.852 103.82H112.819C118.131 103.82 120.403 106.621 119.637 112.223L115.067 145.643Z" fill="#F45423"/>
<path d="M131.101 138.259H141.06L140.05 145.643H121.096L126.729 104.457H145.682L144.69 111.714H134.731L133.408 121.39H142.724L141.766 128.392H132.45L131.101 138.259Z" fill="#F45423"/>
<path d="M173 103.82L163.5 121.39L158.399 131.257L152.063 145.643H142.618L152.892 125.018L158.399 114.819L164.5 103.815L173 103.82Z" fill="#F45423"/>
</svg>
